<?xml version="1.0"?>
<svg xmlns="http://www.w3.org/2000/svg" xmlns:xlink="http://www.w3.org/1999/xlink" width="500px" height="500px" viewBox="0 0 1200 1200">
	<defs>
		<circle id="Feld" cx="0" cy="0" r="40" style="stroke:#000000; stroke-width:5;" />
	</defs>
	<g transform="translate(0,0)" style="fill:#FFFFFF;">
		<polygon points="700,500 1100,500 1100,700 700,700 700,1100 500,1100 500,700 100,700 100,500 500,500 500,100 700,100" style="fill:none; stroke:#000000; stroke-width:10;" />
		<use  x="700"  y="100"  xlink:href="#Feld" style="fill:#6666FF;" />
		<use  x="700"  y="200"  xlink:href="#Feld" />
		<use  x="700"  y="300"  xlink:href="#Feld" />
		<use  x="700"  y="400"  xlink:href="#Feld" />
		<use  x="700"  y="500"  xlink:href="#Feld" />
		<use  x="800"  y="500"  xlink:href="#Feld" />
		<use  x="900"  y="500"  xlink:href="#Feld" />
		<use  x="1000" y="500"  xlink:href="#Feld" />
		<use  x="1100" y="500"  xlink:href="#Feld" />
		<use  x="1100" y="600"  xlink:href="#Feld" />
		<use  x="1100" y="700"  xlink:href="#Feld" style="fill:#66FF66;" />
		<use  x="1000" y="700"  xlink:href="#Feld" />
		<use  x="900"  y="700"  xlink:href="#Feld" />
		<use  x="800"  y="700"  xlink:href="#Feld" />
		<use  x="700"  y="700"  xlink:href="#Feld" />
		<use  x="700"  y="800"  xlink:href="#Feld" />
		<use  x="700"  y="900"  xlink:href="#Feld" />
		<use  x="700"  y="1000" xlink:href="#Feld" />
		<use  x="700"  y="1100" xlink:href="#Feld" />
		<use  x="600"  y="1100" xlink:href="#Feld" />
		<use  x="500"  y="1100" xlink:href="#Feld" style="fill:#FFFF66;" />
		<use  x="500"  y="1000" xlink:href="#Feld" />
		<use  x="500"  y="900"  xlink:href="#Feld" />
		<use  x="500"  y="800"  xlink:href="#Feld" />
		<use  x="500"  y="700"  xlink:href="#Feld" />
		<use  x="400"  y="700"  xlink:href="#Feld" />
		<use  x="300"  y="700"  xlink:href="#Feld" />
		<use  x="200"  y="700"  xlink:href="#Feld" />
		<use  x="100"  y="700"  xlink:href="#Feld" />
		<use  x="100"  y="600"  xlink:href="#Feld" />
		<use  x="100"  y="500" xlink:href="#Feld" style="fill:#FF9999;" />
		<use  x="200"  y="500"  xlink:href="#Feld" />
		<use  x="300"  y="500"  xlink:href="#Feld" />
		<use  x="400"  y="500"  xlink:href="#Feld" />
		<use  x="500"  y="500"  xlink:href="#Feld" />
		<use  x="500"  y="400"  xlink:href="#Feld" />
		<use  x="500"  y="300"  xlink:href="#Feld" />
		<use  x="500"  y="200"  xlink:href="#Feld" />
		<use  x="500"  y="100"  xlink:href="#Feld" />
		<use  x="600"  y="100"  xlink:href="#Feld" />

		<g class="red">
			<g>
				<use  x="100"  y="100"  xlink:href="#Feld" style="fill:#FF0000;" />
				<text x="100" y="100" font-size="40" text-anchor="middle" dy="15" fill="#000">1</text>
			</g>
			<g>
				<use  x="100"  y="200"  xlink:href="#Feld" style="fill:#FF0000;" />
				<text x="100" y="200" font-size="40" text-anchor="middle" dy="15" fill="#000">2</text>
			</g>
			<g>
				<use  x="200"  y="100"  xlink:href="#Feld" style="fill:#FF0000;" />
				<text x="200" y="100" font-size="40" text-anchor="middle" dy="15" fill="#000">3</text>
			</g>
			<g>
				<use  x="200"  y="200"  xlink:href="#Feld" style="fill:#FF0000;" />
				<text x="200" y="200" font-size="40" text-anchor="middle" dy="15" fill="#000">4</text>
			</g>

			<use  x="200"  y="600"  xlink:href="#Feld" />
			<use  x="300"  y="600"  xlink:href="#Feld" />
			<use  x="400"  y="600"  xlink:href="#Feld" />
			<use  x="500"  y="600"  xlink:href="#Feld" />
		</g>
		<g class="blue">
			<g>
				<use  x="1000" y="100"  xlink:href="#Feld" style="fill:#0000FF;" />
				<text x="1000" y="100" font-size="40" text-anchor="middle" dy="15" fill="#000">1</text>
			</g>
			<g>
				<use  x="1100" y="100"  xlink:href="#Feld" style="fill:#0000FF;" />
				<text x="1100" y="100" font-size="40" text-anchor="middle" dy="15" fill="#000">2</text>
			</g>
			<g>
				<use  x="1000" y="200"  xlink:href="#Feld" style="fill:#0000FF;" />
				<text x="1000" y="200" font-size="40" text-anchor="middle" dy="15" fill="#000">3</text>
			</g>
			<g>
				<use  x="1100" y="200"  xlink:href="#Feld" style="fill:#0000FF;" />
				<text x="1100" y="200" font-size="40" text-anchor="middle" dy="15" fill="#000">4</text>
			</g>

			<use  x="600"  y="200"  xlink:href="#Feld" />
			<use  x="600"  y="300"  xlink:href="#Feld" />
			<use  x="600"  y="400"  xlink:href="#Feld" />
			<use  x="600"  y="500"  xlink:href="#Feld" />
		</g>
		<g class="green">
			<g>
				<use  x="1000" y="1000" xlink:href="#Feld" style="fill:#009900;" />
				<text x="1000" y="1000" font-size="40" text-anchor="middle" dy="15" fill="#000">1</text>
			</g>
			<g>
				<use  x="1100" y="1000" xlink:href="#Feld" style="fill:#009900;" />
				<text x="1100" y="1000" font-size="40" text-anchor="middle" dy="15" fill="#000">2</text>
			</g>
			<g>
				<use  x="1000" y="1100" xlink:href="#Feld" style="fill:#009900;" />
				<text x="1000" y="1100" font-size="40" text-anchor="middle" dy="15" fill="#000">3</text>
			</g>
			<g>
				<use  x="1100" y="1100" xlink:href="#Feld" style="fill:#009900;" />
				<text x="1100" y="1100" font-size="40" text-anchor="middle" dy="15" fill="#000">4</text>
			</g>

			<use  x="1000" y="600"  xlink:href="#Feld" />
			<use  x="900"  y="600"  xlink:href="#Feld" />
			<use  x="800"  y="600"  xlink:href="#Feld" />
			<use  x="700"  y="600"  xlink:href="#Feld" />
		</g>
		<g class="yellow">
			<g>
				<use  x="100"  y="1000" xlink:href="#Feld" style="fill:#FFFF00;" />
				<text x="100"  y="1000" font-size="40" text-anchor="middle" dy="15" fill="#000">1</text>
			</g>
			<g>
				<use  x="100"  y="1100" xlink:href="#Feld" style="fill:#FFFF00;" />
				<text x="100"  y="1100" font-size="40" text-anchor="middle" dy="15" fill="#000">2</text>
			</g>
			<g>
				<use  x="200"  y="1000" xlink:href="#Feld" style="fill:#FFFF00;" />
				<text x="200"  y="1000" font-size="40" text-anchor="middle" dy="15" fill="#000">3</text>
			</g>
			<g>
				<use  x="200"  y="1100" xlink:href="#Feld" style="fill:#FFFF00;" />
				<text x="200"  y="1100" font-size="40" text-anchor="middle" dy="15" fill="#000">4</text>
			</g>

			<use  x="600"  y="1000" xlink:href="#Feld" />
			<use  x="600"  y="900"  xlink:href="#Feld" />
			<use  x="600"  y="800"  xlink:href="#Feld" />
			<use  x="600"  y="700"  xlink:href="#Feld" />
		</g>
	</g>
</svg>
